<svg width="475" height="470" viewBox="0 0 475 470" fill="none" xmlns="http://www.w3.org/2000/svg">
<path fill-rule="evenodd" clip-rule="evenodd" d="M225.312 0.608204C223.533 1.0642 220.297 3.0452 218.122 5.0102C215.667 7.2292 212.723 8.8162 210.358 9.1972C184.508 13.3622 160.95 22.1982 141.884 34.8772C130.701 42.3142 114.637 58.0872 107.297 68.8372C96.331 84.8962 87.21 107.539 83.589 127.696C81.549 139.047 80.04 157.222 80.718 162.274C81.219 166.007 80.867 166.841 76.555 172.134C70.984 178.974 71.739 177.176 54.484 224.696C40.432 263.392 22.588 309.167 16.086 323.196C14.047 327.596 10.044 334.23 7.19103 337.938C-1.87797 349.726 -2.12397 353.176 5.07303 367.553C11.09 379.571 19.268 390.789 28.648 399.892C45.577 416.319 60.666 424.447 86.048 430.808C96.883 433.523 101.849 435.22 102.548 436.444C104.749 440.3 112.855 447.354 118.048 449.933C135.854 458.776 147.124 462.086 171.548 465.646C194.377 468.974 215.797 470.006 249.048 469.381C271.299 468.963 283.605 468.261 294.548 466.785C317.792 463.65 336.033 459.571 341.548 456.274C342.648 455.616 345.717 454.268 348.368 453.278C358.347 449.55 366.481 443.637 371.048 436.791C372.236 435.011 375.362 433.845 386.048 431.197C402.704 427.07 405.729 425.988 417.296 420.014C439.988 408.294 457.283 390.377 469.161 366.285C471.849 360.833 474.028 355.208 474.004 353.785C473.93 349.39 471.543 344.145 467.307 339.063C465.076 336.386 461.235 330.146 458.772 325.196C450.733 309.04 428.758 252.038 406.409 189.368C403.38 180.874 401.524 177.36 397.798 173.06L393.048 167.58V158.189C393.048 133.939 386.929 107.652 376.179 85.7212C357.008 46.6092 319.439 19.8232 270.882 10.6472C261.561 8.8852 259.015 8.0102 256.548 5.7202C254.898 4.1892 252.423 2.3542 251.048 1.6442C248.11 0.125204 230.035 -0.602796 225.312 0.608204ZM240.521 13.1202C243.185 14.2342 244.144 15.3802 244.91 18.3702C245.449 20.4742 246.658 46.0462 247.597 75.1962C249.026 119.582 249.552 128.48 250.831 129.946C251.671 130.909 252.914 131.696 253.594 131.696C254.273 131.696 259.041 128.923 264.189 125.534C281.793 113.943 290.565 111.133 308.548 111.322C318.059 111.423 323.398 112.097 334.291 114.572C350.04 118.152 352.284 118.317 354.541 116.06C356.556 114.045 355.932 109.347 352.302 99.1962C345.482 80.1272 339.497 73.7352 332.659 78.2152C330.438 79.6712 330.234 79.5752 327.835 75.9512C312.601 52.9302 292.886 38.8462 268.067 33.2532C263.953 32.3262 260.247 31.0342 259.832 30.3822C259.418 29.7292 259.072 27.5092 259.063 25.4462C259.048 21.7532 259.107 21.6962 262.938 21.6962C268.792 21.6962 282.082 24.4392 292.12 27.7202C325.265 38.5512 347.935 57.7302 363.015 87.6962C372.75 107.042 379.515 128.437 381.053 144.745C382.252 157.458 382.868 159.42 386.986 163.633C388.67 165.355 390.048 167.438 390.048 168.261C390.048 169.084 391.65 171.163 393.607 172.882C398.316 177.017 399.811 180.149 407.937 202.91C428.975 261.835 448.441 311.646 457.257 329.109C458.913 332.391 462.469 337.983 465.158 341.535C469.597 347.399 470.048 348.487 470.048 353.345C470.048 356.288 469.711 358.682 469.298 358.664C468.564 358.634 463.847 350.51 449.321 324.257C439.143 305.863 434.525 294.847 424.772 265.696C405.467 207.997 388.944 176.463 366.089 153.696C350.096 137.765 335.925 130.235 317.159 127.697C302.502 125.715 282.667 129.717 266.883 137.843C261.345 140.693 259.163 141.2 249.548 141.87C236.182 142.801 237.914 142.801 224.548 141.87C214.933 141.2 212.751 140.693 207.213 137.843C191.491 129.749 171.559 125.709 157.112 127.687C138.129 130.286 124.028 137.761 108.045 153.696C95.296 166.407 85.407 180.82 74.767 202.196C64.768 222.284 58.846 237.225 48.598 268.218C39.103 296.936 30.483 315.811 14.603 342.66C9.89803 350.615 6.04803 357.504 6.04803 357.969C6.04803 358.434 5.59803 358.536 5.04803 358.196C4.49803 357.856 4.04803 355.409 4.04803 352.757C4.04803 348.535 4.62303 347.208 8.68103 342.066C16.908 331.643 28.297 305.546 49.865 247.696C55.914 231.471 63.65 210.321 67.056 200.696C73.899 181.361 76.685 175.763 81.091 172.506C82.718 171.304 84.048 169.672 84.048 168.879C84.048 168.087 85.574 165.749 87.44 163.684C91.082 159.652 93.048 153.14 93.048 145.105C93.048 129.281 106.523 92.7282 119.603 73.0702C129.503 58.1922 146.126 43.6342 162.671 35.3552C175.402 28.9842 201.273 21.6962 211.158 21.6962C214.989 21.6962 215.048 21.7532 215.033 25.4462C215.024 27.5092 214.687 29.7042 214.283 30.3262C213.879 30.9472 209.498 32.4432 204.548 33.6502C187.204 37.8782 167.522 49.4632 157.466 61.3652C155.22 64.0222 151.202 69.2322 148.536 72.9432C143.838 79.4842 143.619 79.6452 141.404 78.1932C134.147 73.4392 127.565 81.4672 120.649 103.508C116.229 117.595 118.179 119.329 134.44 115.776C152.355 111.861 163.126 110.479 171.182 111.063C186.081 112.142 194.347 115.337 212.479 127.026C220.473 132.179 223.625 132.534 224.507 128.379C224.762 127.179 225.666 103.921 226.517 76.6962C228.193 23.0262 228.512 18.0682 230.445 15.4732C231.458 14.1142 234.673 12.2442 236.83 11.7592C236.985 11.7252 238.646 12.3372 240.521 13.1202ZM184.548 141.668C194.867 144.299 203.643 148.627 208.048 153.259L211.548 156.939L204.048 152.889C186.627 143.482 163.531 141.671 144.735 148.238C109.732 160.467 102.336 191.773 130.091 210.225C145.161 220.243 162.244 223.503 182.372 220.202C199.677 217.363 197.155 220.108 179.048 223.818C173.791 224.896 162.96 226.038 154.798 226.376C140.29 226.976 140.048 226.952 140.048 224.888C140.048 219.803 137.955 217.724 130.627 215.53C118.592 211.927 112.035 207.439 108.325 200.265C105.935 195.643 105.535 185.257 107.456 177.68C111.156 163.082 118.52 153.413 130.109 147.935C149.779 138.638 165.54 136.823 184.548 141.668ZM326.736 141.556C338.314 144.631 350.108 150.856 355.305 156.637C367.261 169.935 371.068 191.512 363.481 202.976C360.207 207.924 353.326 212.247 344.548 214.873C336.211 217.366 334.455 218.711 333.602 223.261L332.957 226.696H322.996C308.668 226.696 282.49 222.427 279.598 219.619C278.21 218.27 281.696 218.46 292.298 220.31C313.722 224.049 335.021 218.516 349.575 205.431C356.415 199.282 359.391 193.071 359.88 183.931C360.218 177.6 359.92 175.955 357.56 171.13C349.723 155.113 328.903 144.557 305.048 144.507C289.839 144.476 277.443 147.634 267.067 154.184C261.46 157.724 260.955 156.788 266.097 152.386C272.893 146.569 286.177 141.382 299.548 139.326C305.16 138.462 319.525 139.641 326.736 141.556ZM230.138 157.304C231.272 158.671 231.186 159.122 229.569 160.304C225.199 163.5 215.159 160.677 218.136 157.09C219.792 155.095 228.432 155.249 230.138 157.304ZM255.048 156.683C257.729 158.392 254.891 161.156 250.094 161.508C245.11 161.875 241.238 159.377 243.174 157.044C244.464 155.49 252.779 155.237 255.048 156.683ZM245.298 177.194C248.679 177.728 249.048 178.086 249.048 180.827V183.867L241.798 183.226C237.81 182.873 232.411 183.001 229.798 183.511L225.048 184.438V181.086C225.048 178.423 225.511 177.632 227.298 177.239C233.446 175.887 236.964 175.878 245.298 177.194ZM246.792 193.292C249.108 193.644 250.745 194.828 252.515 197.433C253.879 199.44 254.833 201.244 254.635 201.442C254.437 201.64 250.2 201.021 245.22 200.066C236.609 198.416 235.763 198.417 228.009 200.083C223.524 201.047 219.61 201.591 219.312 201.293C219.013 200.995 219.965 199.182 221.428 197.265C223.992 193.903 224.734 193.591 233.048 192.368C235.521 192.004 240.507 192.339 246.792 193.292ZM147.048 197.098C152.273 198.511 159.876 200.339 163.943 201.159C179.118 204.217 178.615 211.122 163.357 209.215C152.812 207.898 137.102 201.534 135.084 197.763C133.552 194.901 133.822 193.499 135.798 194.044C136.761 194.31 141.823 195.684 147.048 197.098ZM336.972 199.277C332.152 204.407 311.072 210.526 302.596 209.255C293.552 207.899 298.05 203.389 311.177 200.651C316.331 199.576 324.598 197.611 329.548 196.285C337.255 194.22 338.597 194.089 338.889 195.374C339.076 196.199 338.213 197.955 336.972 199.277ZM244.628 214.301C247.851 215.83 249.695 219.542 246.652 218.374C240.019 215.829 236.892 215.426 232.944 216.609C230.687 217.285 228.212 218.08 227.444 218.374C225.131 219.262 225.843 215.876 228.24 214.593C234.147 211.432 238.421 211.356 244.628 214.301ZM208.409 231.946C203.35 240.3 163.005 293.196 161.693 293.196C160.464 293.196 117.048 249.155 117.048 247.909C117.048 247.193 202.106 230.978 206.857 230.788C208.455 230.724 208.933 231.081 208.409 231.946ZM311.298 238.869C335.911 243.383 356.048 247.496 356.048 248.009C356.048 249.24 312.823 293.196 311.612 293.196C310.094 293.196 265.048 233.24 265.048 231.219C265.048 230.379 264.55 230.297 311.298 238.869ZM219.048 246.666C219.048 247.626 179.346 300.778 171.781 309.946C167.804 314.766 165.524 316.141 166.83 312.932C167.225 311.962 170.331 307.8 173.732 303.682C182.675 292.857 204.305 264.632 211.431 254.49C217.186 246.299 219.048 244.386 219.048 246.666ZM268.074 262.696C283.103 282.875 295.843 299.333 302.24 306.832C304.885 309.931 307.048 313.053 307.048 313.769C307.048 316.119 301.01 309.422 290.752 295.696C285.203 288.271 275.495 275.446 269.179 267.196C257.412 251.826 252.873 245.104 254.732 245.801C255.311 246.018 261.315 253.621 268.074 262.696ZM233.048 287.696V320.696H227.548H222.048L222.08 290.446C222.105 266.384 222.392 259.826 223.485 258.385C224.744 256.723 228.739 254.992 231.798 254.782C232.774 254.715 233.048 261.917 233.048 287.696ZM249.298 257.478C250.894 258.871 251.048 261.724 251.048 289.851V320.696H245.548H240.048V287.651V254.605L243.798 255.277C245.861 255.647 248.336 256.637 249.298 257.478ZM212.048 297.696V320.696H206.548H201.048V304.836C201.048 289.36 201.112 288.881 203.679 285.086C206.185 281.379 211.267 274.921 211.798 274.768C211.935 274.728 212.048 285.046 212.048 297.696ZM269.132 284.096L272.048 287.996V304.346V320.696H266.548H261.048L261.084 297.446L261.12 274.196L263.668 277.196C265.07 278.846 267.528 281.951 269.132 284.096ZM191.048 311.696V320.696H184.048C180.198 320.696 177.048 320.399 177.048 320.037C177.048 318.624 189.62 302.696 190.735 302.696C190.907 302.696 191.048 306.746 191.048 311.696ZM288.061 308.391C290.529 311.524 293.577 315.574 294.834 317.391L297.12 320.696H290.191C284.795 320.696 283.128 320.346 282.655 319.114C281.774 316.82 281.909 302.696 282.811 302.696C283.231 302.696 285.593 305.259 288.061 308.391ZM159.048 321.696C161.641 324.289 161.587 327.741 158.9 331.157C157.127 333.411 156.223 333.781 153.716 333.28C149.613 332.459 147.048 329.94 147.048 326.732C147.048 320.554 154.696 317.344 159.048 321.696ZM323.825 321.253C325.356 322.325 326.048 323.833 326.048 326.098C326.048 329.949 323.739 332.408 319.287 333.298C316.513 333.853 315.924 333.542 314.106 330.56C311.548 326.364 311.55 325.599 314.121 322.331C316.506 319.299 320.416 318.864 323.825 321.253ZM302.798 331.946C302.472 332.925 288.324 333.252 237.465 333.455C201.761 333.598 171.957 333.488 171.235 333.212C170.512 332.936 170.201 332.257 170.544 331.703C171.541 330.09 303.336 330.332 302.798 331.946ZM259.883 337.882C246.304 338.385 226.485 338.385 213.383 337.881C192.091 337.062 193.689 337.003 237.048 337.004C281.037 337.004 282.27 337.052 259.883 337.882ZM171.921 343.446C216.28 375.343 235.048 389.267 235.048 390.279C235.048 391.016 235.848 391.299 237.048 390.986C238.148 390.698 239.048 390.093 239.048 389.641C239.048 389.189 247.036 383.079 256.798 376.064C266.56 369.049 281.073 358.507 289.048 352.639C303.693 341.861 307.857 339.172 308.659 339.973C309.329 340.644 238.023 393.212 236.615 393.085C235.38 392.974 170.278 345.092 166.576 341.571C163.213 338.374 166.443 339.507 171.921 343.446ZM289.048 340.696C285.37 341.874 184.871 341.874 183.048 340.696C182.07 340.064 200.706 339.756 236.548 339.811C266.798 339.857 290.423 340.256 289.048 340.696ZM271.048 344.646C280.332 345.094 267.923 345.335 236.548 345.316C209.598 345.301 193.398 345.021 200.548 344.696C219.077 343.853 254.073 343.828 271.048 344.646ZM321.483 362.196C329.949 379.254 343.048 419.856 343.048 429.037C343.048 432.557 342.533 433.607 339.695 435.872C336.273 438.602 325.225 443.696 322.726 443.696C321.619 443.696 321.225 439.954 320.752 424.946C320.149 405.774 317.588 385.352 312.544 359.482C311.171 352.442 310.05 345.898 310.053 344.939C310.062 341.609 314.861 348.854 321.483 362.196ZM161.169 358.009C156.112 383.137 153.243 405.802 152.381 427.446C152.025 436.384 151.319 443.696 150.812 443.696C150.304 443.696 146.887 442.498 143.219 441.033C135.252 437.852 130.048 433.353 130.048 429.646C130.048 423.168 142.525 382.636 149.238 367.307C154.099 356.208 162.27 343.403 162.83 346.009C163.044 347.006 162.296 352.406 161.169 358.009ZM261.798 348.797C272.935 348.871 282.048 349.328 282.048 349.814C282.048 350.31 262.378 350.696 237.048 350.696C212.298 350.696 192.048 350.324 192.048 349.868C192.048 349.413 201.594 348.942 213.262 348.821C224.929 348.701 234.71 348.368 234.996 348.082C235.282 347.795 236.873 347.809 238.532 348.112C240.191 348.415 250.661 348.724 261.798 348.797ZM271.548 353.696C272.873 354.265 270.341 354.603 264.048 354.696C253.116 354.858 254.231 356.412 265.548 356.787L272.548 357.019L265.048 357.727C260.923 358.116 248.323 358.435 237.048 358.435C225.773 358.435 213.173 358.116 209.048 357.727L201.548 357.019L208.548 356.787C220.138 356.403 220.866 354.859 209.548 354.667C202.912 354.554 200.389 354.227 202.048 353.696C205.429 352.613 269.028 352.613 271.548 353.696ZM233.798 356.402C235.036 356.64 237.06 356.64 238.298 356.402C239.536 356.163 238.523 355.968 236.048 355.968C233.573 355.968 232.56 356.163 233.798 356.402ZM264.048 362.696C265.423 363.136 253.048 363.497 236.548 363.497C220.048 363.497 207.673 363.136 209.048 362.696C210.423 362.256 222.798 361.895 236.548 361.895C250.298 361.895 262.673 362.256 264.048 362.696ZM256.048 366.405L261.548 367.098L257.548 367.839C252.313 368.81 222.713 368.902 216.438 367.968L211.548 367.24L215.548 366.61C221.198 365.72 249.466 365.577 256.048 366.405ZM252.048 371.696C252.048 372.318 246.381 372.696 237.048 372.696C227.715 372.696 222.048 372.318 222.048 371.696C222.048 371.074 227.715 370.696 237.048 370.696C246.381 370.696 252.048 371.074 252.048 371.696ZM246.048 375.572L250.548 376.301L243.798 377.078C236.006 377.975 221.927 376.821 226.048 375.622C229.306 374.675 240.331 374.647 246.048 375.572Z" fill="#DEDEDE"/>
</svg>
