<svg width="70" height="70" viewBox="0 0 70 70" fill="none" xmlns="http://www.w3.org/2000/svg">
<path fill-rule="evenodd" clip-rule="evenodd" d="M32.7573 0.0388147C26.5537 0.475353 20.7978 2.40492 15.752 5.73963C9.45072 9.90417 4.7495 15.8298 2.12048 22.9215C0.982386 25.9916 0.248221 29.5463 0.042898 32.9812L0 33.6985H35H70L69.9556 33.0162C69.8255 31.02 69.5511 28.9209 69.251 27.6277L69.2145 27.4703H62.1128H55.0111V26.2106V24.951H57.532H60.0529L60.0338 23.7088L60.0147 22.4666L55.0286 22.4487L50.0425 22.4307V21.2065V19.9823H53.7864H57.5304V18.7227V17.463H56.2707H55.0111V16.2034V14.9437H52.5268H50.0425V13.7191V12.4944H51.2671H52.4918V11.2348V9.97513H50.0075H47.5232V8.71548V7.45583H48.7839H50.0446L50.026 5.41471L50.0075 3.37352L49.2377 3.02852C45.8465 1.5084 42.2077 0.545543 38.3207 0.139657C37.112 0.0134118 33.9362 -0.0441122 32.7573 0.0388147ZM24.2443 7.63659C26.3943 8.00434 28.5178 9.20367 30.0006 10.8878C32.4337 13.6513 33.1307 17.4734 31.8412 20.981C30.6528 24.2135 27.6802 26.6754 24.2093 27.3017C23.4086 27.4461 21.6762 27.4644 20.9306 27.3362C18.0601 26.8427 15.6644 25.2929 14.1134 22.9264C13.4028 21.8423 12.9465 20.7362 12.6639 19.4136C12.442 18.3742 12.442 16.5519 12.6639 15.5125C12.9465 14.1898 13.4028 13.0838 14.1134 11.9997C15.8231 9.39107 18.4978 7.81106 21.7354 7.49733C22.2226 7.4501 23.6014 7.52666 24.2443 7.63659ZM0.042898 36.9351C0.621846 46.6193 5.05539 55.4715 12.463 61.7334C16.153 64.8526 20.7151 67.2824 25.3394 68.5912C30.7432 70.1207 36.1215 70.339 41.8198 69.2601L42.4496 69.1409L42.4693 68.285L42.4889 67.4291H41.2621H40.0353V66.2044V64.9798H43.7792H47.5232V63.7201V62.4605H48.7828H50.0425V61.2008V59.9412H53.7864H57.5304V58.6815V57.4219H58.79H60.0497V56.1972V54.9726H57.5304H55.0111V53.7129V52.4533H51.2671H47.5232V51.1936V49.934H50.0075H52.4918V48.7098V47.4856L57.5129 47.4677L62.534 47.4497L62.5531 46.2075L62.5722 44.9654H60.0513H57.5304V43.7057V42.4461H63.3724H69.2145L69.251 42.2886C69.5511 40.9954 69.8255 38.8963 69.9556 36.9001L70 36.2178H35H0L0.042898 36.9351Z" fill="#ECECEC"/>
</svg>
